HIERARCHY
ROOT Hips
{
    OFFSET   0.000000   0.000000   0.000000
    CHANNELS 6 Xposition Yposition Zposition Zrotation Xrotation Yrotation
    JOINT Chest
    {
        OFFSET   0.000000   8.007230   0.000000
        CHANNELS 3 Zrotation Xrotation Yrotation
        JOINT Chest2
        {
            OFFSET   0.000000  22.077100   0.000000
            CHANNELS 3 Zrotation Xrotation Yrotation
            JOINT Neck
            {
                OFFSET   0.000000  23.254700   0.000000
                CHANNELS 3 Zrotation Xrotation Yrotation
                JOINT Head
                {
                    OFFSET   0.000010  14.370000   1.956610
                    CHANNELS 3 Zrotation Xrotation Yrotation
                    End Site
                    {
                        OFFSET   0.000000  19.566000   0.000000
                    }
                }
            }
            JOINT LeftCollar
            {
                OFFSET   3.911900  19.017000  -0.467063
                CHANNELS 3 Zrotation Xrotation Yrotation
                JOINT LeftShoulder
                {
                    OFFSET  10.383700   0.000000   0.000000
                    CHANNELS 3 Zrotation Xrotation Yrotation
                    JOINT LeftElbow
                    {
                        OFFSET  26.662100   0.001671   0.000522
                        CHANNELS 3 Zrotation Xrotation Yrotation
                        JOINT LeftWrist
                        {
                            OFFSET  28.869000   0.000037  -0.000114
                            CHANNELS 3 Zrotation Xrotation Yrotation
                            JOINT LeftFinger0
                            {
                                OFFSET   2.044650  -2.323450   3.252850
                                CHANNELS 3 Zrotation Xrotation Yrotation
                                JOINT LeftFinger01
                                {
                                    OFFSET   3.088140   0.000000   0.000000
                                    CHANNELS 3 Zrotation Xrotation Yrotation
                                    JOINT LeftFinger02
                                    {
                                        OFFSET   2.639460   0.000000   0.000000
                                        CHANNELS 3 Zrotation Xrotation Yrotation
                                        End Site
                                        {
                                            OFFSET   2.582190   0.000000   0.000000
                                        }
                                    }
                                }
                            }
                            JOINT LeftFinger1
                            {
                                OFFSET   8.364480   0.000000   3.252850
                                CHANNELS 3 Zrotation Xrotation Yrotation
                                JOINT LeftFinger11
                                {
                                    OFFSET   4.646930   0.000000   0.000000
                                    CHANNELS 3 Zrotation Xrotation Yrotation
                                    JOINT LeftFinger12
                                    {
                                        OFFSET   2.323470   0.000000   0.000000
                                        CHANNELS 3 Zrotation Xrotation Yrotation
                                        End Site
                                        {
                                            OFFSET   2.273050   0.000000   0.000000
                                        }
                                    }
                                }
                            }
                            JOINT LeftFinger2
                            {
                                OFFSET   8.364490   0.000016   1.078090
                                CHANNELS 3 Zrotation Xrotation Yrotation
                                JOINT LeftFinger21
                                {
                                    OFFSET   5.111620   0.000000   0.000000
                                    CHANNELS 3 Zrotation Xrotation Yrotation
                                    JOINT LeftFinger22
                                    {
                                        OFFSET   2.788150   0.000013   0.000000
                                        CHANNELS 3 Zrotation Xrotation Yrotation
                                        End Site
                                        {
                                            OFFSET   2.727660   0.000000   0.000000
                                        }
                                    }
                                }
                            }
                            JOINT LeftFinger3
                            {
                                OFFSET   7.899780   0.000016  -1.078090
                                CHANNELS 3 Zrotation Xrotation Yrotation
                                JOINT LeftFinger31
                                {
                                    OFFSET   4.646930   0.000000   0.000000
                                    CHANNELS 3 Zrotation Xrotation Yrotation
                                    JOINT LeftFinger32
                                    {
                                        OFFSET   2.323470   0.000000   0.000000
                                        CHANNELS 3 Zrotation Xrotation Yrotation
                                        End Site
                                        {
                                            OFFSET   2.273050   0.000000   0.000000
                                        }
                                    }
                                }
                            }
                            JOINT LeftFinger4
                            {
                                OFFSET   7.435080   0.000000  -3.252850
                                CHANNELS 3 Zrotation Xrotation Yrotation
                                JOINT LeftFinger41
                                {
                                    OFFSET   3.717550   0.000000   0.000000
                                    CHANNELS 3 Zrotation Xrotation Yrotation
                                    JOINT LeftFinger42
                                    {
                                        OFFSET   1.858760   0.000000   0.000000
                                        CHANNELS 3 Zrotation Xrotation Yrotation
                                        End Site
                                        {
                                            OFFSET   1.818440   0.000000   0.000000
                                        }
                                    }
                                }
                            }
                        }
                    }
                }
            }
            JOINT RightCollar
            {
                OFFSET  -3.911900  19.017000  -0.467064
                CHANNELS 3 Zrotation Xrotation Yrotation
                JOINT RightShoulder
                {
                    OFFSET -10.383700   0.000000   0.000000
                    CHANNELS 3 Zrotation Xrotation Yrotation
                    JOINT RightElbow
                    {
                        OFFSET -26.662100   0.001633   0.000260
                        CHANNELS 3 Zrotation Xrotation Yrotation
                        JOINT RightWrist
                        {
                            OFFSET -28.869000  -0.000045  -0.000080
                            CHANNELS 3 Zrotation Xrotation Yrotation
                            JOINT RightFinger0
                            {
                                OFFSET  -2.044660  -2.323490   3.252850
                                CHANNELS 3 Zrotation Xrotation Yrotation
                                JOINT RightFinger01
                                {
                                    OFFSET  -3.088140   0.000000   0.000000
                                    CHANNELS 3 Zrotation Xrotation Yrotation
                                    JOINT RightFinger02
                                    {
                                        OFFSET  -2.639450   0.000000   0.000000
                                        CHANNELS 3 Zrotation Xrotation Yrotation
                                        End Site
                                        {
                                            OFFSET  -2.582190   0.000000   0.000000
                                        }
                                    }
                                }
                            }
                            JOINT RightFinger1
                            {
                                OFFSET  -8.364480   0.000000   3.252850
                                CHANNELS 3 Zrotation Xrotation Yrotation
                                JOINT RightFinger11
                                {
                                    OFFSET  -4.646920   0.000000   0.000000
                                    CHANNELS 3 Zrotation Xrotation Yrotation
                                    JOINT RightFinger12
                                    {
                                        OFFSET  -2.323470   0.000000   0.000000
                                        CHANNELS 3 Zrotation Xrotation Yrotation
                                        End Site
                                        {
                                            OFFSET  -2.273050   0.000000   0.000000
                                        }
                                    }
                                }
                            }
                            JOINT RightFinger2
                            {
                                OFFSET  -8.364480   0.000000   1.078090
                                CHANNELS 3 Zrotation Xrotation Yrotation
                                JOINT RightFinger21
                                {
                                    OFFSET  -5.111610   0.000000   0.000000
                                    CHANNELS 3 Zrotation Xrotation Yrotation
                                    JOINT RightFinger22
                                    {
                                        OFFSET  -2.788160   0.000000   0.000000
                                        CHANNELS 3 Zrotation Xrotation Yrotation
                                        End Site
                                        {
                                            OFFSET  -2.727660   0.000000   0.000000
                                        }
                                    }
                                }
                            }
                            JOINT RightFinger3
                            {
                                OFFSET  -7.899780   0.000000  -1.078090
                                CHANNELS 3 Zrotation Xrotation Yrotation
                                JOINT RightFinger31
                                {
                                    OFFSET  -4.646930   0.000000   0.000000
                                    CHANNELS 3 Zrotation Xrotation Yrotation
                                    JOINT RightFinger32
                                    {
                                        OFFSET  -2.323470   0.000000   0.000000
                                        CHANNELS 3 Zrotation Xrotation Yrotation
                                        End Site
                                        {
                                            OFFSET  -2.273050   0.000000   0.000000
                                        }
                                    }
                                }
                            }
                            JOINT RightFinger4
                            {
                                OFFSET  -7.435090   0.000000  -3.252850
                                CHANNELS 3 Zrotation Xrotation Yrotation
                                JOINT RightFinger41
                                {
                                    OFFSET  -3.717550   0.000000   0.000000
                                    CHANNELS 3 Zrotation Xrotation Yrotation
                                    JOINT RightFinger42
                                    {
                                        OFFSET  -1.858760   0.000000   0.000000
                                        CHANNELS 3 Zrotation Xrotation Yrotation
                                        End Site
                                        {
                                            OFFSET  -1.818440   0.000000   0.000000
                                        }
                                    }
                                }
                            }
                        }
                    }
                }
            }
        }
    }
    JOINT LeftHip
    {
        OFFSET   9.782990   0.000000   0.000000
        CHANNELS 3 Zrotation Xrotation Yrotation
        JOINT LeftKnee
        {
            OFFSET  -0.000063 -41.789100   0.001657
            CHANNELS 3 Zrotation Xrotation Yrotation
            JOINT LeftAnkle
            {
                OFFSET   0.000078 -41.133200  -0.000113
                CHANNELS 3 Zrotation Xrotation Yrotation
                JOINT LeftToe
                {
                    OFFSET   0.000000  -6.358970  14.674500
                    CHANNELS 3 Zrotation Xrotation Yrotation
                    End Site
                    {
                        OFFSET   0.000000   0.000000   3.913200
                    }
                }
            }
        }
    }
    JOINT RightHip
    {
        OFFSET  -9.782990   0.000000   0.000000
        CHANNELS 3 Zrotation Xrotation Yrotation
        JOINT RightKnee
        {
            OFFSET   0.000053 -41.789200   0.000277
            CHANNELS 3 Zrotation Xrotation Yrotation
            JOINT RightAnkle
            {
                OFFSET   0.000030 -41.133200  -0.000150
                CHANNELS 3 Zrotation Xrotation Yrotation
                JOINT RightToe
                {
                    OFFSET   0.000000  -6.358960  14.674500
                    CHANNELS 3 Zrotation Xrotation Yrotation
                    End Site
                    {
                        OFFSET   0.000000   0.000000   3.913200
                    }
                }
            }
        }
    }
}
MOTION
Frames: 6
Frame Time:   0.016667
 -0.198103  89.505600  -0.868437  -0.309672  -3.542520   2.865590   0.461560   2.656060   0.070173   0.921348   5.312610   0.119089  -0.441635  -0.881775  -0.000123  -0.726090  -1.787600   3.086640  -8.583790   3.154060  -2.110150 -70.662800  16.661000  -8.909240  -1.372150  -1.733390  -8.759890   5.843500  -8.284960   3.705540  41.729200  30.346700 -59.490700 -25.552900   0.004300   0.004168  -7.776450   0.000206   0.000262 -36.440200   2.363060  -3.196240 -29.868600  -0.005034  -0.004357 -20.901400  -0.004915   0.000456 -28.616500  -0.823062   1.494270 -37.656700   0.000090  -0.004688 -25.079400  -0.002385  -0.003549 -28.492500  -1.524670   2.803250 -36.436100  -0.001584  -0.005391 -24.266400  -0.002734  -0.004114 -34.811400  -1.881510   2.698210 -52.284100  -0.002704   0.010389 -34.821200  -0.002334   0.002941  12.786800  -1.733630   5.579950  66.981400   8.636400   0.585560   0.629289 -12.894800   4.550060  -7.705390 -11.514500   1.210170 -43.712600  28.838000  60.855600  20.225200  -0.003071  -0.009714   5.112620   0.003535  -0.001099  31.993100   7.593500  11.943700  26.827000  -0.009555  -0.006864  18.778900  -0.003973  -0.003768  28.024900   5.401870  10.017200  36.259500  -0.003230  -0.008333  24.148800  -0.002951  -0.003304  27.868800   3.871860   7.276970  32.790600  -0.000077  -0.002156  21.838500  -0.012269   0.003882  31.708100   0.941391   1.527280  47.581100  -0.013964  -0.000600  31.689000  -0.008284   0.001753   1.951780   6.671060  -3.400710   0.629793   0.134703   9.891780  -3.815860  -3.578470   3.970220  -0.000000   0.000000  -0.000000   0.054399   5.969480  -2.285070   1.146740   1.432240 -10.016800  -2.567990  -4.468500   1.054230  -0.000000   0.000000   0.000000
 -0.201886  89.505600  -0.868533  -0.310129  -3.542500   2.858660   0.461617   2.656010   0.072625   0.921347   5.312540   0.124003  -0.428756  -0.892783  -0.000123  -0.704906  -1.810030   3.115620  -8.578310   3.152330  -2.110130 -70.655800  16.665800  -8.930550  -1.372650  -1.733250  -8.776690   5.860220  -8.295060   3.715560  41.736700  30.361900 -59.471100 -25.562000   0.004307   0.004170  -7.780930   0.000201   0.000259 -36.439300   2.355880  -3.186770 -29.867600  -0.005032  -0.004357 -20.903000  -0.004912   0.000456 -28.616400  -0.823060   1.499960 -37.651300   0.000091  -0.004688 -25.075800  -0.002384  -0.003548 -28.492500  -1.524540   2.803140 -36.442100  -0.001584  -0.005390 -24.270400  -0.002734  -0.004114 -34.815500  -1.881390   2.698050 -52.290100  -0.002704   0.010391 -34.825200  -0.002333   0.002941  12.796100  -1.733490   5.579780  66.988800   8.623550   0.570059   0.631199 -12.885300   4.546390  -7.707590 -11.515500   1.199010 -43.707600  28.847200  60.853600  20.245600  -0.003079  -0.009720   5.122810   0.003534  -0.001101  31.973300   7.575560  11.925400  26.808300  -0.009557  -0.006862  18.765800  -0.003972  -0.003765  28.025000   5.401810  10.017000  36.246700  -0.003227  -0.008331  24.140300  -0.002948  -0.003306  27.871600   3.861500   7.258220  32.769900  -0.000078  -0.002153  21.824700  -0.012270   0.003885  31.694100   0.941278   1.527280  47.559900  -0.013964  -0.000598  31.674900  -0.008280   0.001752   1.956000   6.663490  -3.400780   0.628836   0.157618   9.891770  -3.816520  -3.593150   3.975100  -0.000000   0.000000   0.000000   0.059245   5.962650  -2.285050   1.146520   1.446660 -10.016400  -2.567630  -4.470440   1.054480  -0.000000   0.000000  -0.000000
 -0.207554  89.505600  -0.868630  -0.310728  -3.542430   2.850050   0.461706   2.655960   0.076756   0.921332   5.312460   0.132277  -0.411036  -0.909563  -0.000120  -0.675754  -1.844200   3.159980  -8.570500   3.148460  -2.110080 -70.644500  16.672000  -8.966090  -1.373400  -1.733070  -8.803050   5.884710  -8.312070   3.732070  41.747500  30.379400 -59.452800 -25.575600   0.004315   0.004172  -7.787810   0.000197   0.000257 -36.438700   2.345480  -3.172710 -29.866600  -0.005029  -0.004355 -20.906600  -0.004907   0.000455 -28.616300  -0.823056   1.508800 -37.645800   0.000095  -0.004688 -25.072200  -0.002384  -0.003546 -28.492600  -1.524330   2.802980 -36.453200  -0.001584  -0.005386 -24.277800  -0.002733  -0.004112 -34.825000  -1.881220   2.697820 -52.304200  -0.002704   0.010394 -34.834600  -0.002332   0.002942  12.809700  -1.733230   5.579610  67.001300   8.610710   0.545385   0.636272 -12.870900   4.536270  -7.711270 -11.518400   1.180180 -43.696900  28.859400  60.854600  20.276200  -0.003092  -0.009725   5.138110   0.003533  -0.001104  31.953500   7.557620  11.907100  26.789500  -0.009564  -0.006854  18.752700  -0.003964  -0.003759  28.025100   5.401680  10.016800  36.233900  -0.003217  -0.008324  24.131800  -0.002941  -0.003312  27.874500   3.851140   7.239480  32.749200  -0.000079  -0.002146  21.810900  -0.012275   0.003895  31.680100   0.941089   1.527280  47.538800  -0.013965  -0.000595  31.660800  -0.008268   0.001749   1.962850   6.655920  -3.400900   0.629027   0.180533   9.891610  -3.817420  -3.610070   3.982540   0.000000   0.000000   0.000000   0.066458   5.953420  -2.285040   1.145410   1.466250 -10.013700  -2.567270  -4.472380   1.054740   0.000000   0.000000   0.000000
 -0.211230  89.505500  -0.868609  -0.310946  -3.542300   2.848100   0.461765   2.656110   0.080397   0.921282   5.312770   0.139566  -0.404550  -0.919580  -0.000104  -0.665553  -1.864620   3.187830  -8.566600   3.143630  -2.109940 -70.637900  16.672100  -8.994870  -1.368340  -1.733130  -8.819830   5.898620  -8.326820   3.746000  41.748600  30.385100 -59.457400 -25.584100   0.004316   0.004169  -7.792880   0.000198   0.000263 -36.447000   2.340800  -3.165410 -29.873400  -0.005028  -0.004352 -20.912100  -0.004905   0.000454 -28.616100  -0.825383   1.514420 -37.655200   0.000102  -0.004684 -25.078400  -0.002381  -0.003544 -28.492600  -1.524120   2.802920 -36.467500  -0.001584  -0.005382 -24.287300  -0.002731  -0.004107 -34.840100  -1.881140   2.697720 -52.326800  -0.002702   0.010396 -34.849600  -0.002330   0.002947  12.817600  -1.732890   5.579650  67.012300   8.615530   0.530272   0.643001 -12.862700   4.514150  -7.706200 -11.525300   1.160720 -43.683700  28.859600  60.868100  20.293000  -0.003101  -0.009716   5.146530   0.003535  -0.001109  31.959000   7.562620  11.912500  26.794600  -0.009576  -0.006837  18.757700  -0.003945  -0.003750  28.025300   5.401510  10.016700  36.237400  -0.003199  -0.008311  24.134100  -0.002930  -0.003322  27.873600   3.855300   7.247040  32.755800  -0.000077  -0.002135  21.815300  -0.012286   0.003911  31.681500   0.940900   1.524500  47.540900  -0.013971  -0.000592  31.662200  -0.008247   0.001746   1.968860   6.659170  -3.401010   0.630618   0.180335   9.889950  -3.817560  -3.612680   3.987930   0.000000   0.000000   0.000000   0.071531   5.950600  -2.289420   1.142490   1.472470 -10.005700  -2.567500  -4.471620   1.053050   0.000000   0.000000  -0.000000
 -0.213187  89.505500  -0.868569  -0.311075  -3.542160   2.847820   0.461815   2.657150   0.083602   0.921235   5.314890   0.145971  -0.402905  -0.927947  -0.000084  -0.662531  -1.881620   3.209600  -8.565180   3.137040  -2.109840 -70.631400  16.672200  -9.023070  -1.359920  -1.734050  -8.836310   5.905710  -8.340170   3.757490  41.747300  30.392100 -59.464100 -25.588200   0.004316   0.004166  -7.795570   0.000200   0.000270 -36.456700   2.337230  -3.159560 -29.881000  -0.005026  -0.004347 -20.916700  -0.004902   0.000453 -28.615900  -0.829160   1.519520 -37.664600   0.000111  -0.004678 -25.084600  -0.002377  -0.003541 -28.492600  -1.523990   2.802890 -36.476800  -0.001584  -0.005377 -24.293500  -0.002728  -0.004102 -34.855000  -1.881120   2.697680 -52.349200  -0.002701   0.010399 -34.864500  -0.002328   0.002954  12.821100  -1.732670   5.579900  67.022200   8.620350   0.512135   0.654593 -12.855800   4.498420  -7.686850 -11.530200   1.148920 -43.670500  28.857200  60.887000  20.306800  -0.003111  -0.009697   5.153400   0.003537  -0.001114  31.963600   7.569850  11.921100  26.799600  -0.009593  -0.006814  18.762700  -0.003920  -0.003739  28.025400   5.401390  10.016600  36.240800  -0.003174  -0.008295  24.136400  -0.002915  -0.003336  27.871900   3.862200   7.259860  32.762300  -0.000075  -0.002122  21.819700  -0.012301   0.003934  31.683900   0.940787   1.521730  47.544400  -0.013980  -0.000590  31.664600  -0.008220   0.001743   1.972360   6.663950  -3.401080   0.631274   0.178938   9.887280  -3.817450  -3.613040   3.990770   0.000000   0.000000   0.000000   0.074471   5.950180  -2.296060   1.139580   1.473530  -9.997560  -2.568010  -4.470170   1.049100   0.000000   0.000000   0.000000
 -0.213381  89.505500  -0.868513  -0.310807  -3.542010   2.853930   0.461861   2.661180   0.085405   0.921242   5.322980   0.149551  -0.407887  -0.934828  -0.000081  -0.670579  -1.895350   3.224270  -8.565890   3.127910  -2.109820 -70.620600  16.687700  -9.050000  -1.353050  -1.740430  -8.855210   5.900630  -8.349490   3.762230  41.753100  30.399400 -59.476400 -25.582600   0.004315   0.004183  -7.792050   0.000193   0.000270 -36.458700   2.333630  -3.154470 -29.881800  -0.005020  -0.004341 -20.917800  -0.004901   0.000450 -28.615800  -0.831209   1.523450 -37.663400   0.000120  -0.004671 -25.083900  -0.002374  -0.003535 -28.492600  -1.524070   2.803360 -36.474500  -0.001582  -0.005370 -24.292800  -0.002724  -0.004096 -34.864100  -1.881630   2.698370 -52.362500  -0.002699   0.010403 -34.873400  -0.002326   0.002961  12.817300  -1.735310   5.585930  67.029500   8.606860   0.481481   0.672862 -12.849400   4.499130  -7.651120 -11.516300   1.151610 -43.661000  28.858600  60.907300  20.315300  -0.003127  -0.009674   5.157650   0.003529  -0.001119  31.961800   7.572880  11.925800  26.799000  -0.009615  -0.006789  18.761400  -0.003892  -0.003730  28.025300   5.401380  10.018300  36.234400  -0.003145  -0.008273  24.132100  -0.002902  -0.003351  27.868100   3.868980   7.273350  32.757300  -0.000076  -0.002107  21.816300  -0.012320   0.003966  31.686100   0.940862   1.522090  47.547700  -0.013987  -0.000585  31.666800  -0.008185   0.001738   1.972530   6.666480  -3.401050   0.633003   0.162846   9.885460  -3.816250  -3.604650   3.987020  -0.000000   0.000000  -0.000000   0.074824   5.952700  -2.300790   1.137350   1.466250  -9.993650  -2.568720  -4.468500   1.043020  -0.000000   0.000000   0.000000
